<svg width="28" height="27" viewBox="0 0 28 27" fill="none" xmlns="http://www.w3.org/2000/svg">
<circle cx="14" cy="13.5417" r="13.4583" fill="#956D84"/>
<g clip-path="url(#clip0_14213_1157)">
<path d="M18.7838 7.39069C18.6128 7.18155 18.3567 7.06641 18.0625 7.06641C17.9026 7.06641 17.7332 7.10005 17.5591 7.1666L5.7084 11.6904C5.07949 11.9304 4.99479 12.2906 5.00024 12.4839C5.00568 12.6772 5.11068 13.032 5.75219 13.2362C5.75603 13.2373 5.75988 13.2385 5.76372 13.2396L8.22188 13.943L9.55126 17.7445C9.73252 18.2627 10.1394 18.5846 10.6132 18.5846C10.9119 18.5846 11.2058 18.4595 11.463 18.2228L12.9834 16.8228L15.1888 18.5985C15.189 18.5987 15.1893 18.5988 15.1895 18.5991L15.2105 18.6159C15.2124 18.6174 15.2144 18.619 15.2163 18.6205C15.4615 18.8107 15.729 18.9111 15.9904 18.9112H15.9905C16.5012 18.9112 16.9078 18.5332 17.0263 17.9483L18.968 8.36043C19.046 7.97559 18.9806 7.63123 18.7838 7.39069ZM9.04423 13.8094L13.7868 11.3866L10.8337 14.5244C10.7854 14.5758 10.7511 14.6387 10.7342 14.7072L10.1648 17.0137L9.04423 13.8094ZM10.9072 17.6193C10.8876 17.6373 10.8678 17.6535 10.8481 17.6683L11.3763 15.5287L12.3373 16.3025L10.9072 17.6193ZM18.164 8.19754L16.2223 17.7855C16.2036 17.8772 16.1439 18.0907 15.9904 18.0907C15.9146 18.0907 15.8193 18.0494 15.7218 17.9743L13.2228 15.9622C13.2225 15.9619 13.2221 15.9616 13.2216 15.9613L11.7347 14.764L16.0051 10.2263C16.1419 10.0811 16.1542 9.85857 16.0345 9.69899C15.9147 9.53941 15.6975 9.48921 15.5199 9.58L8.49618 13.1682L6.00458 12.4554L17.8517 7.93297C17.9518 7.89473 18.0216 7.88672 18.0625 7.88672C18.0876 7.88672 18.1323 7.88971 18.1488 7.91011C18.1706 7.93671 18.1984 8.02739 18.164 8.19754Z" fill="white"/>
</g>
<defs>
<clipPath id="clip0_14213_1157">
<rect width="14" height="14" fill="white" transform="translate(5 6)"/>
</clipPath>
</defs>
</svg>
